<svg xmlns="http://www.w3.org/2000/svg" viewBox="0 0 640 220" role="img" aria-labelledby="pathway-title">
  <title id="pathway-title">Visual learning pathway: Scenario, Reasoning, Decision, Feedback, Reflection, Assessment</title>
  <line x1="60" y1="110" x2="580" y2="110" stroke="#cbd5e1" stroke-width="3" stroke-dasharray="2 10" stroke-linecap="round"/>

  <g transform="translate(60,110)">
    <circle r="34" fill="#0d9488"/>
    <path d="M-10 -6h20v16h-20z M-6 -12h12v6h-12z" fill="#fff"/>
  </g>
  <g transform="translate(164,110)">
    <circle r="34" fill="#0f766e"/>
    <circle cx="-6" cy="-2" r="10" fill="none" stroke="#fff" stroke-width="3"/>
    <line x1="2" y1="6" x2="10" y2="14" stroke="#fff" stroke-width="3" stroke-linecap="round"/>
  </g>
  <g transform="translate(268,110)">
    <circle r="34" fill="#4f46e5"/>
    <path d="M-10 8l10-20 10 20z" fill="none" stroke="#fff" stroke-width="3" stroke-linejoin="round"/>
  </g>
  <g transform="translate(372,110)">
    <circle r="34" fill="#4338ca"/>
    <path d="M-10 0l7 7 13-14" fill="none" stroke="#fff" stroke-width="4" stroke-linecap="round" stroke-linejoin="round"/>
  </g>
  <g transform="translate(476,110)">
    <circle r="34" fill="#f59e0b"/>
    <path d="M-10 -8a10 10 0 1 1 6 18l-6 6v-8" fill="none" stroke="#fff" stroke-width="3" stroke-linecap="round"/>
  </g>
  <g transform="translate(580,110)">
    <circle r="34" fill="#334155"/>
    <path d="M-10 4l6 6 14-14" fill="none" stroke="#fff" stroke-width="4" stroke-linecap="round" stroke-linejoin="round"/>
  </g>

  <text x="60" y="175" text-anchor="middle" font-family="system-ui, sans-serif" font-size="13" font-weight="600" fill="#0f172a">Scenario</text>
  <text x="164" y="175" text-anchor="middle" font-family="system-ui, sans-serif" font-size="13" font-weight="600" fill="#0f172a">Reasoning</text>
  <text x="268" y="175" text-anchor="middle" font-family="system-ui, sans-serif" font-size="13" font-weight="600" fill="#0f172a">Decision</text>
  <text x="372" y="175" text-anchor="middle" font-family="system-ui, sans-serif" font-size="13" font-weight="600" fill="#0f172a">Feedback</text>
  <text x="476" y="175" text-anchor="middle" font-family="system-ui, sans-serif" font-size="13" font-weight="600" fill="#0f172a">Reflection</text>
  <text x="580" y="175" text-anchor="middle" font-family="system-ui, sans-serif" font-size="13" font-weight="600" fill="#0f172a">Assessment</text>
</svg>
