<svg xmlns="http://www.w3.org/2000/svg" viewBox="0 0 400 300" role="img" aria-labelledby="t2dm-title">
  <title id="t2dm-title">Illustration representing Type 2 Diabetes Mellitus — glucose monitoring</title>
  <rect width="400" height="300" fill="none"/>
  <circle cx="200" cy="150" r="110" fill="#ccfbf1"/>
  <circle cx="200" cy="150" r="78" fill="#99f6e4" opacity="0.7"/>
  <!-- glucometer body -->
  <rect x="150" y="105" width="100" height="140" rx="16" fill="#ffffff" stroke="#0f766e" stroke-width="4"/>
  <rect x="164" y="122" width="72" height="40" rx="6" fill="#0d9488"/>
  <text x="200" y="149" text-anchor="middle" font-family="monospace" font-size="20" fill="#ffffff">98</text>
  <circle cx="176" cy="188" r="8" fill="#e2e8f0"/>
  <circle cx="200" cy="188" r="8" fill="#e2e8f0"/>
  <circle cx="224" cy="188" r="8" fill="#e2e8f0"/>
  <circle cx="176" cy="210" r="8" fill="#e2e8f0"/>
  <circle cx="200" cy="210" r="8" fill="#e2e8f0"/>
  <circle cx="224" cy="210" r="8" fill="#e2e8f0"/>
  <!-- blood drop accent -->
  <path d="M290 110c0 14-10 24-22 24s-22-10-22-24c0-14 22-38 22-38s22 24 22 38z" fill="#f59e0b"/>
  <!-- lancet line -->
  <line x1="250" y1="150" x2="278" y2="150" stroke="#0f766e" stroke-width="3" stroke-linecap="round"/>
</svg>
