<svg xmlns="http://www.w3.org/2000/svg" viewBox="0 0 490 96" role="img" aria-label="CaseStep logo, reverse"><rect x="6" y="62" width="28" height="28" fill="#FFFFFF"/><rect x="34" y="34" width="28" height="56" fill="#FFFFFF"/><rect x="62" y="6" width="28" height="28" fill="#C9A227"/><g transform="translate(118 74)"><path d="M27.37222222222222 1.0833333333333333Q19.57222222222222 1.0833333333333333 13.92083333333333 -2.311111111111111Q8.269444444444444 -5.705555555555555 5.218055555555555 -11.808333333333332Q2.1666666666666665 -17.911111111111108 2.1666666666666665 -25.999999999999996Q2.1666666666666665 -34.08888888888889 5.218055555555555 -40.19166666666666Q8.269444444444444 -46.29444444444444 13.92083333333333 -49.68888888888888Q19.57222222222222 -53.08333333333333 27.37222222222222 -53.08333333333333Q36.327777777777776 -53.08333333333333 42.412499999999994 -48.641666666666666Q48.49722222222222 -44.199999999999996 50.98888888888889 -36.61666666666666L41.09444444444444 -33.87222222222222Q39.65 -38.602777777777774 36.21944444444444 -41.22083333333333Q32.788888888888884 -43.83888888888888 27.37222222222222 -43.83888888888888Q22.424999999999997 -43.83888888888888 19.12083333333333 -41.636111111111106Q15.816666666666665 -39.43333333333333 14.155555555555555 -35.425Q12.494444444444444 -31.416666666666664 12.494444444444444 -25.999999999999996Q12.494444444444444 -20.583333333333332 14.155555555555555 -16.575Q15.816666666666665 -12.566666666666665 19.12083333333333 -10.363888888888887Q22.424999999999997 -8.16111111111111 27.37222222222222 -8.16111111111111Q32.788888888888884 -8.16111111111111 36.21944444444444 -10.79722222222222Q39.65 -13.433333333333332 41.09444444444444 -18.127777777777776L50.98888888888889 -15.383333333333331Q48.49722222222222 -7.799999999999999 42.412499999999994 -3.358333333333333Q36.327777777777776 1.0833333333333333 27.37222222222222 1.0833333333333333Z M53.87777777777777 0.0 69.76666666666667 -51.99999999999999H84.42777777777778L100.31666666666666 0.0H90.20555555555555L76.05 -45.86111111111111H77.92777777777778L63.98888888888888 0.0ZM63.411111111111104 -10.833333333333332V-20.005555555555553H90.85555555555555V-10.833333333333332Z M125.01666666666667 1.0833333333333333Q119.23888888888888 1.0833333333333333 114.5986111111111 -0.9569444444444443Q109.95833333333333 -2.997222222222222 106.97916666666666 -6.806944444444444Q104.0 -10.616666666666665 103.20555555555555 -15.888888888888888L113.46111111111111 -17.405555555555555Q114.54444444444444 -12.927777777777777 117.93888888888888 -10.508333333333333Q121.33333333333333 -8.088888888888889 125.66666666666666 -8.088888888888889Q128.0861111111111 -8.088888888888889 130.36111111111111 -8.847222222222221Q132.63611111111112 -9.605555555555554 134.0986111111111 -11.086111111111109Q135.5611111111111 -12.566666666666665 135.5611111111111 -14.733333333333333Q135.5611111111111 -15.527777777777777 135.32638888888889 -16.268055555555556Q135.09166666666667 -17.008333333333333 134.55 -17.65833333333333Q134.00833333333333 -18.30833333333333 133.01527777777778 -18.88611111111111Q132.0222222222222 -19.46388888888889 130.50555555555556 -19.93333333333333L117.0 -23.905555555555555Q115.48333333333333 -24.338888888888885 113.47916666666666 -25.13333333333333Q111.475 -25.927777777777774 109.59722222222221 -27.40833333333333Q107.71944444444443 -28.888888888888886 106.4736111111111 -31.326388888888886Q105.22777777777777 -33.763888888888886 105.22777777777777 -37.48333333333333Q105.22777777777777 -42.71944444444444 107.86388888888888 -46.1861111111111Q110.5 -49.65277777777777 114.90555555555555 -51.349999999999994Q119.3111111111111 -53.04722222222222 124.65555555555555 -53.011111111111106Q130.0361111111111 -52.93888888888888 134.26111111111112 -51.16944444444444Q138.48611111111111 -49.4 141.3388888888889 -46.02361111111111Q144.19166666666666 -42.64722222222222 145.45555555555555 -37.77222222222222L134.83888888888887 -35.96666666666666Q134.26111111111112 -38.49444444444444 132.70833333333331 -40.227777777777774Q131.15555555555554 -41.96111111111111 129.00694444444443 -42.86388888888889Q126.85833333333332 -43.766666666666666 124.5111111111111 -43.83888888888888Q122.19999999999999 -43.911111111111104 120.15972222222221 -43.20694444444444Q118.11944444444444 -42.50277777777777 116.83749999999999 -41.16666666666666Q115.55555555555554 -39.83055555555555 115.55555555555554 -37.98888888888889Q115.55555555555554 -36.291666666666664 116.60277777777776 -35.22638888888889Q117.64999999999999 -34.16111111111111 119.23888888888888 -33.511111111111106Q120.82777777777777 -32.86111111111111 122.48888888888888 -32.42777777777778L131.51666666666665 -29.972222222222218Q133.5388888888889 -29.430555555555554 135.99444444444444 -28.54583333333333Q138.45 -27.661111111111108 140.70694444444445 -26.090277777777775Q142.96388888888887 -24.519444444444442 144.42638888888888 -21.955555555555556Q145.88888888888889 -19.391666666666666 145.88888888888889 -15.455555555555554Q145.88888888888889 -11.266666666666666 144.1375 -8.143055555555556Q142.38611111111112 -5.019444444444444 139.425 -2.9791666666666665Q136.46388888888887 -0.9388888888888888 132.7263888888889 0.07222222222222224Q128.98888888888888 1.0833333333333333 125.01666666666667 1.0833333333333333Z M152.38888888888886 0.0V-51.99999999999999H186.33333333333331V-42.827777777777776H162.21111111111108V-31.705555555555552H181.99999999999997V-22.53333333333333H162.21111111111108V-9.17222222222222H186.33333333333331V0.0Z M213.19999999999996 1.0833333333333333Q207.4222222222222 1.0833333333333333 202.78194444444443 -0.9569444444444443Q198.14166666666665 -2.997222222222222 195.16249999999997 -6.806944444444444Q192.1833333333333 -10.616666666666665 191.38888888888886 -15.888888888888888L201.64444444444442 -17.405555555555555Q202.72777777777776 -12.927777777777777 206.1222222222222 -10.508333333333333Q209.51666666666665 -8.088888888888889 213.84999999999997 -8.088888888888889Q216.26944444444442 -8.088888888888889 218.54444444444442 -8.847222222222221Q220.8194444444444 -9.605555555555554 222.2819444444444 -11.086111111111109Q223.7444444444444 -12.566666666666665 223.7444444444444 -14.733333333333333Q223.7444444444444 -15.527777777777777 223.5097222222222 -16.268055555555556Q223.27499999999998 -17.008333333333333 222.7333333333333 -17.65833333333333Q222.19166666666663 -18.30833333333333 221.19861111111106 -18.88611111111111Q220.20555555555552 -19.46388888888889 218.68888888888887 -19.93333333333333L205.1833333333333 -23.905555555555555Q203.66666666666663 -24.338888888888885 201.66249999999997 -25.13333333333333Q199.6583333333333 -25.927777777777774 197.7805555555555 -27.40833333333333Q195.90277777777774 -28.888888888888886 194.6569444444444 -31.326388888888886Q193.41111111111107 -33.763888888888886 193.41111111111107 -37.48333333333333Q193.41111111111107 -42.71944444444444 196.0472222222222 -46.1861111111111Q198.6833333333333 -49.65277777777777 203.08888888888885 -51.349999999999994Q207.4944444444444 -53.04722222222222 212.83888888888885 -53.011111111111106Q218.2194444444444 -52.93888888888888 222.4444444444444 -51.16944444444444Q226.66944444444442 -49.4 229.52222222222218 -46.02361111111111Q232.37499999999997 -42.64722222222222 233.63888888888886 -37.77222222222222L223.02222222222218 -35.96666666666666Q222.4444444444444 -38.49444444444444 220.89166666666662 -40.227777777777774Q219.33888888888885 -41.96111111111111 217.19027777777774 -42.86388888888889Q215.04166666666663 -43.766666666666666 212.6944444444444 -43.83888888888888Q210.3833333333333 -43.911111111111104 208.3430555555555 -43.20694444444444Q206.30277777777775 -42.50277777777777 205.02083333333331 -41.16666666666666Q203.73888888888885 -39.83055555555555 203.73888888888885 -37.98888888888889Q203.73888888888885 -36.291666666666664 204.7861111111111 -35.22638888888889Q205.83333333333331 -34.16111111111111 207.42222222222222 -33.511111111111106Q209.0111111111111 -32.86111111111111 210.6722222222222 -32.42777777777778L219.69999999999996 -29.972222222222218Q221.7222222222222 -29.430555555555554 224.17777777777775 -28.54583333333333Q226.6333333333333 -27.661111111111108 228.89027777777773 -26.090277777777775Q231.14722222222218 -24.519444444444442 232.6097222222222 -21.955555555555556Q234.0722222222222 -19.391666666666666 234.0722222222222 -15.455555555555554Q234.0722222222222 -11.266666666666666 232.3208333333333 -8.143055555555556Q230.5694444444444 -5.019444444444444 227.6083333333333 -2.9791666666666665Q224.64722222222218 -0.9388888888888888 220.90972222222217 0.07222222222222224Q217.1722222222222 1.0833333333333333 213.19999999999996 1.0833333333333333Z M252.63333333333333 0.0V-42.827777777777776H236.23888888888888V-51.99999999999999H278.84999999999997V-42.827777777777776H262.4555555555555V0.0Z M283.1833333333333 0.0V-51.99999999999999H317.12777777777774V-42.827777777777776H293.00555555555553V-31.705555555555552H312.7944444444444V-22.53333333333333H293.00555555555553V-9.17222222222222H317.12777777777774V0.0Z M324.34999999999997 0.0V-51.99999999999999H346.30555555555554Q347.06388888888887 -51.99999999999999 348.3458333333333 -51.945833333333326Q349.62777777777774 -51.89166666666666 350.63888888888886 -51.71111111111111Q355.2972222222222 -50.98888888888889 358.27638888888885 -48.641666666666666Q361.25555555555553 -46.29444444444444 362.6638888888889 -42.7375Q364.0722222222222 -39.18055555555555 364.0722222222222 -34.81111111111111Q364.0722222222222 -30.441666666666663 362.6458333333333 -26.88472222222222Q361.21944444444443 -23.327777777777776 358.24027777777775 -20.980555555555554Q355.26111111111106 -18.633333333333333 350.63888888888886 -17.911111111111108Q349.62777777777774 -17.766666666666666 348.3277777777778 -17.694444444444443Q347.02777777777777 -17.62222222222222 346.30555555555554 -17.62222222222222H334.1722222222222V0.0ZM334.1722222222222 -26.79444444444444H345.8722222222222Q346.63055555555553 -26.79444444444444 347.5333333333333 -26.866666666666664Q348.4361111111111 -26.938888888888886 349.1944444444444 -27.15555555555555Q351.18055555555554 -27.69722222222222 352.26388888888886 -28.979166666666664Q353.3472222222222 -30.26111111111111 353.76249999999993 -31.83194444444444Q354.17777777777775 -33.40277777777777 354.17777777777775 -34.81111111111111Q354.17777777777775 -36.21944444444444 353.76249999999993 -37.790277777777774Q353.3472222222222 -39.36111111111111 352.26388888888886 -40.64305555555555Q351.18055555555554 -41.925 349.1944444444444 -42.46666666666666Q348.4361111111111 -42.68333333333333 347.5333333333333 -42.75555555555555Q346.63055555555553 -42.827777777777776 345.8722222222222 -42.827777777777776H334.1722222222222Z" fill="#FFFFFF"/></g></svg>
